<mxfile host="Electron" modified="2023-11-19T15:48:41.520Z" agent="Mozilla/5.0 (Macintosh; Intel Mac OS X 10_15_7) AppleWebKit/537.36 (KHTML, like Gecko) draw.io/22.1.2 Chrome/114.0.5735.289 Electron/25.9.4 Safari/537.36" etag="CUBhDGXxfbQFEoxzwuN9" version="22.1.2" type="device">
  <diagram name="Page-1" id="AI9xFA448RENWGoOS4yr">
    <mxGraphModel dx="2049" dy="1296" grid="1" gridSize="10" guides="1" tooltips="1" connect="1" arrows="1" fold="1" page="1" pageScale="1" pageWidth="827" pageHeight="1169" math="0" shadow="0">
      <root>
        <mxCell id="0" />
        <mxCell id="1" parent="0" />
        <mxCell id="WoIh1A_TEwp8gWf-KlNA-4" style="edgeStyle=orthogonalEdgeStyle;rounded=0;orthogonalLoop=1;jettySize=auto;html=1;exitX=0;exitY=0.5;exitDx=0;exitDy=0;entryX=1;entryY=0.5;entryDx=0;entryDy=0;endArrow=none;endFill=0;" edge="1" parent="1" source="WoIh1A_TEwp8gWf-KlNA-1" target="WoIh1A_TEwp8gWf-KlNA-3">
          <mxGeometry relative="1" as="geometry" />
        </mxCell>
        <mxCell id="WoIh1A_TEwp8gWf-KlNA-21" style="edgeStyle=orthogonalEdgeStyle;rounded=0;orthogonalLoop=1;jettySize=auto;html=1;exitX=1;exitY=0.5;exitDx=0;exitDy=0;endArrow=none;endFill=0;" edge="1" parent="1" source="WoIh1A_TEwp8gWf-KlNA-1" target="WoIh1A_TEwp8gWf-KlNA-20">
          <mxGeometry relative="1" as="geometry">
            <Array as="points" />
          </mxGeometry>
        </mxCell>
        <mxCell id="WoIh1A_TEwp8gWf-KlNA-1" value="Round &amp;amp; Overflow" style="rounded=0;whiteSpace=wrap;html=1;" vertex="1" parent="1">
          <mxGeometry x="450" y="440" width="70" height="30" as="geometry" />
        </mxCell>
        <mxCell id="WoIh1A_TEwp8gWf-KlNA-5" style="rounded=0;orthogonalLoop=1;jettySize=auto;html=1;exitX=0;exitY=1;exitDx=0;exitDy=0;endArrow=none;endFill=0;" edge="1" parent="1" source="WoIh1A_TEwp8gWf-KlNA-3">
          <mxGeometry relative="1" as="geometry">
            <mxPoint x="400" y="470" as="targetPoint" />
          </mxGeometry>
        </mxCell>
        <mxCell id="WoIh1A_TEwp8gWf-KlNA-6" style="rounded=0;orthogonalLoop=1;jettySize=auto;html=1;exitX=0;exitY=0;exitDx=0;exitDy=0;endArrow=none;endFill=0;" edge="1" parent="1" source="WoIh1A_TEwp8gWf-KlNA-3">
          <mxGeometry relative="1" as="geometry">
            <mxPoint x="400" y="440" as="targetPoint" />
          </mxGeometry>
        </mxCell>
        <mxCell id="WoIh1A_TEwp8gWf-KlNA-3" value="X" style="ellipse;whiteSpace=wrap;html=1;aspect=fixed;" vertex="1" parent="1">
          <mxGeometry x="404" y="445" width="20" height="20" as="geometry" />
        </mxCell>
        <mxCell id="WoIh1A_TEwp8gWf-KlNA-15" value="" style="group" vertex="1" connectable="0" parent="1">
          <mxGeometry x="526" y="440" width="84" height="60" as="geometry" />
        </mxCell>
        <mxCell id="WoIh1A_TEwp8gWf-KlNA-16" value="" style="rounded=0;whiteSpace=wrap;html=1;" vertex="1" parent="WoIh1A_TEwp8gWf-KlNA-15">
          <mxGeometry x="22" y="5" width="40" height="55" as="geometry" />
        </mxCell>
        <mxCell id="WoIh1A_TEwp8gWf-KlNA-18" value="EN" style="text;html=1;strokeColor=none;fillColor=none;align=center;verticalAlign=middle;whiteSpace=wrap;rounded=0;" vertex="1" parent="WoIh1A_TEwp8gWf-KlNA-15">
          <mxGeometry x="4" y="15" width="60" height="30" as="geometry" />
        </mxCell>
        <mxCell id="WoIh1A_TEwp8gWf-KlNA-17" value="D" style="text;html=1;strokeColor=none;fillColor=none;align=center;verticalAlign=middle;whiteSpace=wrap;rounded=0;" vertex="1" parent="WoIh1A_TEwp8gWf-KlNA-15">
          <mxGeometry width="60" height="30" as="geometry" />
        </mxCell>
        <mxCell id="WoIh1A_TEwp8gWf-KlNA-19" value="" style="triangle;whiteSpace=wrap;html=1;" vertex="1" parent="WoIh1A_TEwp8gWf-KlNA-15">
          <mxGeometry x="22" y="42" width="10" height="10" as="geometry" />
        </mxCell>
        <mxCell id="WoIh1A_TEwp8gWf-KlNA-22" style="edgeStyle=orthogonalEdgeStyle;rounded=0;orthogonalLoop=1;jettySize=auto;html=1;exitX=0;exitY=1;exitDx=0;exitDy=0;endArrow=none;endFill=0;entryX=0.152;entryY=1.029;entryDx=0;entryDy=0;entryPerimeter=0;" edge="1" parent="WoIh1A_TEwp8gWf-KlNA-15" target="WoIh1A_TEwp8gWf-KlNA-17">
          <mxGeometry relative="1" as="geometry">
            <mxPoint x="22" y="30" as="sourcePoint" />
            <mxPoint x="14" y="30" as="targetPoint" />
          </mxGeometry>
        </mxCell>
        <mxCell id="WoIh1A_TEwp8gWf-KlNA-23" style="edgeStyle=orthogonalEdgeStyle;rounded=0;orthogonalLoop=1;jettySize=auto;html=1;exitX=1;exitY=0.5;exitDx=0;exitDy=0;" edge="1" parent="WoIh1A_TEwp8gWf-KlNA-15">
          <mxGeometry relative="1" as="geometry">
            <mxPoint x="124" y="15" as="targetPoint" />
            <mxPoint x="62" y="15" as="sourcePoint" />
          </mxGeometry>
        </mxCell>
        <mxCell id="WoIh1A_TEwp8gWf-KlNA-20" value="Q" style="text;html=1;strokeColor=none;fillColor=none;align=center;verticalAlign=middle;whiteSpace=wrap;rounded=0;" vertex="1" parent="WoIh1A_TEwp8gWf-KlNA-15">
          <mxGeometry x="24" width="60" height="30" as="geometry" />
        </mxCell>
        <mxCell id="WoIh1A_TEwp8gWf-KlNA-24" style="edgeStyle=orthogonalEdgeStyle;rounded=0;orthogonalLoop=1;jettySize=auto;html=1;exitX=0;exitY=0.5;exitDx=0;exitDy=0;entryX=1;entryY=0.5;entryDx=0;entryDy=0;endArrow=none;endFill=0;" edge="1" parent="1" source="WoIh1A_TEwp8gWf-KlNA-26" target="WoIh1A_TEwp8gWf-KlNA-29">
          <mxGeometry relative="1" as="geometry" />
        </mxCell>
        <mxCell id="WoIh1A_TEwp8gWf-KlNA-25" style="edgeStyle=orthogonalEdgeStyle;rounded=0;orthogonalLoop=1;jettySize=auto;html=1;exitX=1;exitY=0.5;exitDx=0;exitDy=0;endArrow=none;endFill=0;" edge="1" parent="1" source="WoIh1A_TEwp8gWf-KlNA-26" target="WoIh1A_TEwp8gWf-KlNA-37">
          <mxGeometry relative="1" as="geometry">
            <Array as="points" />
          </mxGeometry>
        </mxCell>
        <mxCell id="WoIh1A_TEwp8gWf-KlNA-26" value="Round &amp;amp; Overflow" style="rounded=0;whiteSpace=wrap;html=1;" vertex="1" parent="1">
          <mxGeometry x="450" y="370" width="70" height="30" as="geometry" />
        </mxCell>
        <mxCell id="WoIh1A_TEwp8gWf-KlNA-27" style="rounded=0;orthogonalLoop=1;jettySize=auto;html=1;exitX=0;exitY=1;exitDx=0;exitDy=0;endArrow=none;endFill=0;" edge="1" parent="1" source="WoIh1A_TEwp8gWf-KlNA-29">
          <mxGeometry relative="1" as="geometry">
            <mxPoint x="400" y="400" as="targetPoint" />
          </mxGeometry>
        </mxCell>
        <mxCell id="WoIh1A_TEwp8gWf-KlNA-28" style="rounded=0;orthogonalLoop=1;jettySize=auto;html=1;exitX=0;exitY=0;exitDx=0;exitDy=0;endArrow=none;endFill=0;" edge="1" parent="1" source="WoIh1A_TEwp8gWf-KlNA-29">
          <mxGeometry relative="1" as="geometry">
            <mxPoint x="400" y="370" as="targetPoint" />
          </mxGeometry>
        </mxCell>
        <mxCell id="WoIh1A_TEwp8gWf-KlNA-29" value="+" style="ellipse;whiteSpace=wrap;html=1;aspect=fixed;fontSize=18;spacingTop=-4;" vertex="1" parent="1">
          <mxGeometry x="404" y="375" width="20" height="20" as="geometry" />
        </mxCell>
        <mxCell id="WoIh1A_TEwp8gWf-KlNA-30" value="" style="group" vertex="1" connectable="0" parent="1">
          <mxGeometry x="526" y="370" width="84" height="60" as="geometry" />
        </mxCell>
        <mxCell id="WoIh1A_TEwp8gWf-KlNA-31" value="" style="rounded=0;whiteSpace=wrap;html=1;" vertex="1" parent="WoIh1A_TEwp8gWf-KlNA-30">
          <mxGeometry x="22" y="5" width="40" height="55" as="geometry" />
        </mxCell>
        <mxCell id="WoIh1A_TEwp8gWf-KlNA-32" value="EN" style="text;html=1;strokeColor=none;fillColor=none;align=center;verticalAlign=middle;whiteSpace=wrap;rounded=0;" vertex="1" parent="WoIh1A_TEwp8gWf-KlNA-30">
          <mxGeometry x="4" y="15" width="60" height="30" as="geometry" />
        </mxCell>
        <mxCell id="WoIh1A_TEwp8gWf-KlNA-33" value="D" style="text;html=1;strokeColor=none;fillColor=none;align=center;verticalAlign=middle;whiteSpace=wrap;rounded=0;" vertex="1" parent="WoIh1A_TEwp8gWf-KlNA-30">
          <mxGeometry width="60" height="30" as="geometry" />
        </mxCell>
        <mxCell id="WoIh1A_TEwp8gWf-KlNA-34" value="" style="triangle;whiteSpace=wrap;html=1;" vertex="1" parent="WoIh1A_TEwp8gWf-KlNA-30">
          <mxGeometry x="22" y="42" width="10" height="10" as="geometry" />
        </mxCell>
        <mxCell id="WoIh1A_TEwp8gWf-KlNA-35" style="edgeStyle=orthogonalEdgeStyle;rounded=0;orthogonalLoop=1;jettySize=auto;html=1;exitX=0;exitY=1;exitDx=0;exitDy=0;endArrow=none;endFill=0;entryX=0.152;entryY=1.029;entryDx=0;entryDy=0;entryPerimeter=0;" edge="1" parent="WoIh1A_TEwp8gWf-KlNA-30" target="WoIh1A_TEwp8gWf-KlNA-33">
          <mxGeometry relative="1" as="geometry">
            <mxPoint x="22" y="30" as="sourcePoint" />
            <mxPoint x="14" y="30" as="targetPoint" />
          </mxGeometry>
        </mxCell>
        <mxCell id="WoIh1A_TEwp8gWf-KlNA-36" style="rounded=0;orthogonalLoop=1;jettySize=auto;html=1;exitX=1;exitY=0.5;exitDx=0;exitDy=0;" edge="1" parent="WoIh1A_TEwp8gWf-KlNA-30">
          <mxGeometry relative="1" as="geometry">
            <mxPoint x="124" y="15" as="targetPoint" />
            <mxPoint x="62" y="15" as="sourcePoint" />
          </mxGeometry>
        </mxCell>
        <mxCell id="WoIh1A_TEwp8gWf-KlNA-37" value="Q" style="text;html=1;strokeColor=none;fillColor=none;align=center;verticalAlign=middle;whiteSpace=wrap;rounded=0;" vertex="1" parent="WoIh1A_TEwp8gWf-KlNA-30">
          <mxGeometry x="24" width="60" height="30" as="geometry" />
        </mxCell>
        <mxCell id="WoIh1A_TEwp8gWf-KlNA-38" value="" style="endArrow=none;html=1;rounded=0;exitX=0.6;exitY=0.5;exitDx=0;exitDy=0;exitPerimeter=0;" edge="1" parent="1">
          <mxGeometry width="50" height="50" relative="1" as="geometry">
            <mxPoint x="342" y="440" as="sourcePoint" />
            <mxPoint x="400" y="440" as="targetPoint" />
          </mxGeometry>
        </mxCell>
        <mxCell id="WoIh1A_TEwp8gWf-KlNA-39" value="" style="endArrow=none;html=1;rounded=0;" edge="1" parent="1">
          <mxGeometry width="50" height="50" relative="1" as="geometry">
            <mxPoint x="370" y="470" as="sourcePoint" />
            <mxPoint x="400" y="470" as="targetPoint" />
          </mxGeometry>
        </mxCell>
        <mxCell id="WoIh1A_TEwp8gWf-KlNA-40" value="" style="endArrow=none;html=1;rounded=0;" edge="1" parent="1">
          <mxGeometry width="50" height="50" relative="1" as="geometry">
            <mxPoint x="370" y="399.76" as="sourcePoint" />
            <mxPoint x="400" y="399.76" as="targetPoint" />
          </mxGeometry>
        </mxCell>
        <mxCell id="WoIh1A_TEwp8gWf-KlNA-41" value="" style="endArrow=none;html=1;rounded=0;" edge="1" parent="1">
          <mxGeometry width="50" height="50" relative="1" as="geometry">
            <mxPoint x="342" y="370" as="sourcePoint" />
            <mxPoint x="400" y="370" as="targetPoint" />
          </mxGeometry>
        </mxCell>
        <mxCell id="WoIh1A_TEwp8gWf-KlNA-42" value="" style="endArrow=none;html=1;rounded=0;strokeWidth=2;" edge="1" parent="1">
          <mxGeometry width="50" height="50" relative="1" as="geometry">
            <mxPoint x="370" y="480" as="sourcePoint" />
            <mxPoint x="370" y="360" as="targetPoint" />
          </mxGeometry>
        </mxCell>
        <mxCell id="WoIh1A_TEwp8gWf-KlNA-55" value="arithm_unit" style="text;html=1;strokeColor=none;fillColor=none;align=center;verticalAlign=middle;whiteSpace=wrap;rounded=0;" vertex="1" parent="1">
          <mxGeometry x="530" y="496" width="60" height="30" as="geometry" />
        </mxCell>
        <mxCell id="WoIh1A_TEwp8gWf-KlNA-56" value="add_res" style="text;html=1;strokeColor=none;fillColor=none;align=center;verticalAlign=middle;whiteSpace=wrap;rounded=0;" vertex="1" parent="1">
          <mxGeometry x="596" y="381" width="60" height="30" as="geometry" />
        </mxCell>
        <mxCell id="WoIh1A_TEwp8gWf-KlNA-57" value="mul_res" style="text;html=1;strokeColor=none;fillColor=none;align=center;verticalAlign=middle;whiteSpace=wrap;rounded=0;" vertex="1" parent="1">
          <mxGeometry x="596" y="451" width="60" height="30" as="geometry" />
        </mxCell>
        <mxCell id="WoIh1A_TEwp8gWf-KlNA-60" value="" style="endArrow=none;html=1;rounded=0;" edge="1" parent="1">
          <mxGeometry width="50" height="50" relative="1" as="geometry">
            <mxPoint x="302" y="440" as="sourcePoint" />
            <mxPoint x="290" y="440" as="targetPoint" />
          </mxGeometry>
        </mxCell>
        <mxCell id="WoIh1A_TEwp8gWf-KlNA-62" value="" style="endArrow=classic;html=1;rounded=0;" edge="1" parent="1">
          <mxGeometry width="50" height="50" relative="1" as="geometry">
            <mxPoint x="220" y="440" as="sourcePoint" />
            <mxPoint x="290" y="440" as="targetPoint" />
          </mxGeometry>
        </mxCell>
        <mxCell id="WoIh1A_TEwp8gWf-KlNA-63" value="" style="endArrow=none;html=1;rounded=0;" edge="1" parent="1">
          <mxGeometry width="50" height="50" relative="1" as="geometry">
            <mxPoint x="302" y="454.76" as="sourcePoint" />
            <mxPoint x="290" y="455" as="targetPoint" />
          </mxGeometry>
        </mxCell>
        <mxCell id="WoIh1A_TEwp8gWf-KlNA-64" value="" style="endArrow=none;html=1;rounded=0;" edge="1" parent="1">
          <mxGeometry width="50" height="50" relative="1" as="geometry">
            <mxPoint x="302" y="368" as="sourcePoint" />
            <mxPoint x="290" y="368" as="targetPoint" />
          </mxGeometry>
        </mxCell>
        <mxCell id="WoIh1A_TEwp8gWf-KlNA-65" value="" style="endArrow=none;html=1;rounded=0;" edge="1" parent="1">
          <mxGeometry width="50" height="50" relative="1" as="geometry">
            <mxPoint x="302" y="384.76" as="sourcePoint" />
            <mxPoint x="290" y="385" as="targetPoint" />
          </mxGeometry>
        </mxCell>
        <mxCell id="WoIh1A_TEwp8gWf-KlNA-66" value="data_fr2" style="text;html=1;strokeColor=none;fillColor=none;align=center;verticalAlign=middle;whiteSpace=wrap;rounded=0;" vertex="1" parent="1">
          <mxGeometry x="222" y="416" width="60" height="30" as="geometry" />
        </mxCell>
        <mxCell id="WoIh1A_TEwp8gWf-KlNA-67" value="we_data_fr2" style="text;html=1;strokeColor=none;fillColor=none;align=center;verticalAlign=middle;whiteSpace=wrap;rounded=0;" vertex="1" parent="1">
          <mxGeometry x="224" y="452" width="60" height="30" as="geometry" />
        </mxCell>
        <mxCell id="WoIh1A_TEwp8gWf-KlNA-68" value="" style="endArrow=classic;html=1;rounded=0;" edge="1" parent="1">
          <mxGeometry width="50" height="50" relative="1" as="geometry">
            <mxPoint x="220" y="455" as="sourcePoint" />
            <mxPoint x="290" y="454.76" as="targetPoint" />
          </mxGeometry>
        </mxCell>
        <mxCell id="WoIh1A_TEwp8gWf-KlNA-69" value="" style="endArrow=classic;html=1;rounded=0;" edge="1" parent="1">
          <mxGeometry width="50" height="50" relative="1" as="geometry">
            <mxPoint x="220" y="368" as="sourcePoint" />
            <mxPoint x="290" y="368" as="targetPoint" />
          </mxGeometry>
        </mxCell>
        <mxCell id="WoIh1A_TEwp8gWf-KlNA-70" value="data_fr1" style="text;html=1;strokeColor=none;fillColor=none;align=center;verticalAlign=middle;whiteSpace=wrap;rounded=0;" vertex="1" parent="1">
          <mxGeometry x="222" y="344" width="60" height="30" as="geometry" />
        </mxCell>
        <mxCell id="WoIh1A_TEwp8gWf-KlNA-71" value="we_data_fr1" style="text;html=1;strokeColor=none;fillColor=none;align=center;verticalAlign=middle;whiteSpace=wrap;rounded=0;" vertex="1" parent="1">
          <mxGeometry x="224" y="382" width="60" height="30" as="geometry" />
        </mxCell>
        <mxCell id="WoIh1A_TEwp8gWf-KlNA-72" value="" style="endArrow=classic;html=1;rounded=0;" edge="1" parent="1">
          <mxGeometry width="50" height="50" relative="1" as="geometry">
            <mxPoint x="220" y="385" as="sourcePoint" />
            <mxPoint x="290" y="384.76" as="targetPoint" />
          </mxGeometry>
        </mxCell>
        <mxCell id="WoIh1A_TEwp8gWf-KlNA-43" value="" style="group" vertex="1" connectable="0" parent="1">
          <mxGeometry x="280" y="425" width="82" height="60" as="geometry" />
        </mxCell>
        <mxCell id="WoIh1A_TEwp8gWf-KlNA-7" value="" style="rounded=0;whiteSpace=wrap;html=1;" vertex="1" parent="WoIh1A_TEwp8gWf-KlNA-43">
          <mxGeometry x="22" y="5" width="40" height="55" as="geometry" />
        </mxCell>
        <mxCell id="WoIh1A_TEwp8gWf-KlNA-9" value="D" style="text;html=1;strokeColor=none;fillColor=none;align=center;verticalAlign=middle;whiteSpace=wrap;rounded=0;" vertex="1" parent="WoIh1A_TEwp8gWf-KlNA-43">
          <mxGeometry width="60" height="30" as="geometry" />
        </mxCell>
        <mxCell id="WoIh1A_TEwp8gWf-KlNA-10" value="EN" style="text;html=1;strokeColor=none;fillColor=none;align=center;verticalAlign=middle;whiteSpace=wrap;rounded=0;" vertex="1" parent="WoIh1A_TEwp8gWf-KlNA-43">
          <mxGeometry x="4" y="15" width="60" height="30" as="geometry" />
        </mxCell>
        <mxCell id="WoIh1A_TEwp8gWf-KlNA-12" value="" style="triangle;whiteSpace=wrap;html=1;" vertex="1" parent="WoIh1A_TEwp8gWf-KlNA-43">
          <mxGeometry x="22" y="42" width="10" height="10" as="geometry" />
        </mxCell>
        <mxCell id="WoIh1A_TEwp8gWf-KlNA-13" value="Q" style="text;html=1;strokeColor=none;fillColor=none;align=center;verticalAlign=middle;whiteSpace=wrap;rounded=0;" vertex="1" parent="1">
          <mxGeometry x="304" y="425" width="60" height="30" as="geometry" />
        </mxCell>
        <mxCell id="WoIh1A_TEwp8gWf-KlNA-52" value="Q" style="text;html=1;strokeColor=none;fillColor=none;align=center;verticalAlign=middle;whiteSpace=wrap;rounded=0;" vertex="1" parent="1">
          <mxGeometry x="304" y="354" width="60" height="30.9375" as="geometry" />
        </mxCell>
        <mxCell id="WoIh1A_TEwp8gWf-KlNA-54" value="" style="rounded=0;whiteSpace=wrap;html=1;fillColor=none;" vertex="1" parent="1">
          <mxGeometry x="290" y="350.90625" width="310" height="170.15625" as="geometry" />
        </mxCell>
        <mxCell id="WoIh1A_TEwp8gWf-KlNA-47" value="" style="rounded=0;whiteSpace=wrap;html=1;" vertex="1" parent="1">
          <mxGeometry x="302" y="359.15625" width="40" height="56.71875" as="geometry" />
        </mxCell>
        <mxCell id="WoIh1A_TEwp8gWf-KlNA-48" value="D" style="text;html=1;strokeColor=none;fillColor=none;align=center;verticalAlign=middle;whiteSpace=wrap;rounded=0;" vertex="1" parent="1">
          <mxGeometry x="280" y="354" width="60" height="30.9375" as="geometry" />
        </mxCell>
        <mxCell id="WoIh1A_TEwp8gWf-KlNA-49" value="EN" style="text;html=1;strokeColor=none;fillColor=none;align=center;verticalAlign=middle;whiteSpace=wrap;rounded=0;" vertex="1" parent="1">
          <mxGeometry x="284" y="369.46875" width="60" height="30.9375" as="geometry" />
        </mxCell>
        <mxCell id="WoIh1A_TEwp8gWf-KlNA-50" value="" style="triangle;whiteSpace=wrap;html=1;" vertex="1" parent="1">
          <mxGeometry x="302" y="397.3125" width="10" height="10.3125" as="geometry" />
        </mxCell>
      </root>
    </mxGraphModel>
  </diagram>
</mxfile>
